# Blender 4.3.2
# www.blender.org
mtllib boid.mtl
o Cone
v 0.000000 -1.000000 0.000000
v -0.707107 -1.000000 -0.707107
v 0.707107 -1.000000 -0.707107
v 0.707107 -1.000000 0.707107
v -0.707107 -1.000000 0.707107
v 0.000000 1.000000 0.000000
vn -0.0000 -1.0000 -0.0000
vn -0.0000 0.3333 -0.9428
vn 0.9428 0.3333 -0.0000
vn -0.0000 0.3333 0.9428
vn -0.9428 0.3333 -0.0000
vt 0.750000 0.250000
vt 0.750000 0.490000
vt 0.990000 0.250000
vt 0.250000 0.490000
vt 0.250000 0.250000
vt 0.490000 0.250000
vt 0.750000 0.010000
vt 0.250000 0.010000
vt 0.510000 0.250000
vt 0.010000 0.250000
s 0
f 1/1/1 2/2/1 3/3/1
f 2/4/2 6/5/2 3/6/2
f 1/1/1 3/3/1 4/7/1
f 3/6/3 6/5/3 4/8/3
f 1/1/1 4/7/1 5/9/1
f 4/8/4 6/5/4 5/10/4
f 1/1/1 5/9/1 2/2/1
f 5/10/5 6/5/5 2/4/5
